<svg width="57" height="24" viewBox="0 0 57 24" fill="none" xmlns="http://www.w3.org/2000/svg">
<path d="M13.9121 15.5986V20.5938L0.889648 15.3789V11.5996L5.19629 12.9033L13.9121 15.5986ZM5.19629 13.5186L0.889648 14.7783V10.999L13.9121 5.78418V10.75L5.19629 13.5186ZM18.7607 23.8311H15.04L22.1885 0.671875H25.9092L18.7607 23.8311ZM33.0283 22H27.5205V0.671875H33.0283V22ZM41.0996 13.7822H31.4902V9.3584H41.0996V13.7822ZM41.8906 5.11035H31.4902V0.671875H41.8906V5.11035ZM43.9854 10.7939V5.81348L56.9199 11.0137V14.8076L52.6426 13.4893L43.9854 10.7939ZM52.6426 12.8447L56.9199 11.6289V15.3936L43.9854 20.6084V15.6279L52.6426 12.8447Z" fill="#FF6464"/>
</svg>
