<svg width="150" height="24" viewBox="0 0 150 24" fill="none" xmlns="http://www.w3.org/2000/svg">
<path d="M13.7695 15.5986V20.5938L0.74707 15.3789V11.5996L5.05371 12.9033L13.7695 15.5986ZM5.05371 13.5186L0.74707 14.7783V10.999L13.7695 5.78418V10.75L5.05371 13.5186ZM18.6182 23.8311H14.8975L22.0459 0.671875H25.7666L18.6182 23.8311ZM32.8857 22H27.3779V0.671875H32.8857V22ZM40.957 13.7822H31.3477V9.3584H40.957V13.7822ZM41.748 5.11035H31.3477V0.671875H41.748V5.11035ZM48.3398 22H43.0664V6.15039H47.9883L48.3398 10.3838V22ZM52.8223 11.1895C52.6172 11.1699 52.3389 11.1455 51.9873 11.1162C51.6455 11.0869 51.3672 11.0723 51.1523 11.0723C50.4102 11.0723 49.8047 11.1699 49.3359 11.3652C48.877 11.5508 48.5449 11.8438 48.3398 12.2441C48.1348 12.6445 48.0371 13.1719 48.0469 13.8262L47.124 13.0352C47.124 11.5996 47.3047 10.3447 47.666 9.27051C48.0273 8.18652 48.5352 7.34668 49.1895 6.75098C49.8535 6.15527 50.6299 5.85742 51.5186 5.85742C51.7627 5.85742 52.0068 5.87207 52.251 5.90137C52.5049 5.9209 52.7246 5.96484 52.9102 6.0332L52.8223 11.1895ZM62.3438 22.293C60.5859 22.293 59.0869 21.9365 57.8467 21.2236C56.6162 20.5107 55.6787 19.5732 55.0342 18.4111C54.3896 17.2393 54.0674 15.9746 54.0674 14.6172V14.0752C54.0674 12.5615 54.3506 11.1846 54.917 9.94434C55.4834 8.69434 56.3379 7.70312 57.4805 6.9707C58.623 6.22852 60.0586 5.85742 61.7871 5.85742C63.3203 5.85742 64.6289 6.1748 65.7129 6.80957C66.7969 7.43457 67.627 8.33301 68.2031 9.50488C68.7891 10.667 69.082 12.0586 69.082 13.6797V15.8916H56.0449V12.5078H63.9258V12.083C63.9355 11.624 63.8574 11.248 63.6914 10.9551C63.5254 10.6621 63.2764 10.4473 62.9443 10.3105C62.6221 10.1738 62.2217 10.1055 61.7432 10.1055C61.0596 10.1055 60.5469 10.2959 60.2051 10.6768C59.8633 11.0576 59.6338 11.5508 59.5166 12.1562C59.3994 12.752 59.3408 13.3916 59.3408 14.0752V14.6172C59.3408 15.3203 59.4727 15.9307 59.7363 16.4482C60 16.9561 60.3809 17.3467 60.8789 17.6201C61.3867 17.8936 61.9922 18.0303 62.6953 18.0303C63.3398 18.0303 63.9844 17.918 64.6289 17.6934C65.2832 17.4688 65.835 17.0732 66.2842 16.5068L68.6572 19.5391C68.1689 20.2227 67.3779 20.8525 66.2842 21.4287C65.2002 22.0049 63.8867 22.293 62.3438 22.293ZM84.1406 22H71.8359V17.752H84.1406V22ZM74.209 22H70.5908V18.9971L80.4053 6.15039H84.0381V9.06543L74.209 22ZM82.3242 10.3984H70.8838V6.15039H82.3242V10.3984ZM94.3359 22.293C92.5781 22.293 91.0791 21.9365 89.8389 21.2236C88.6084 20.5107 87.6709 19.5732 87.0264 18.4111C86.3818 17.2393 86.0596 15.9746 86.0596 14.6172V14.0752C86.0596 12.5615 86.3428 11.1846 86.9092 9.94434C87.4756 8.69434 88.3301 7.70312 89.4727 6.9707C90.6152 6.22852 92.0508 5.85742 93.7793 5.85742C95.3125 5.85742 96.6211 6.1748 97.7051 6.80957C98.7891 7.43457 99.6191 8.33301 100.195 9.50488C100.781 10.667 101.074 12.0586 101.074 13.6797V15.8916H88.0371V12.5078H95.918V12.083C95.9277 11.624 95.8496 11.248 95.6836 10.9551C95.5176 10.6621 95.2686 10.4473 94.9365 10.3105C94.6143 10.1738 94.2139 10.1055 93.7354 10.1055C93.0518 10.1055 92.5391 10.2959 92.1973 10.6768C91.8555 11.0576 91.626 11.5508 91.5088 12.1562C91.3916 12.752 91.333 13.3916 91.333 14.0752V14.6172C91.333 15.3203 91.4648 15.9307 91.7285 16.4482C91.9922 16.9561 92.373 17.3467 92.8711 17.6201C93.3789 17.8936 93.9844 18.0303 94.6875 18.0303C95.332 18.0303 95.9766 17.918 96.6211 17.6934C97.2754 17.4688 97.8271 17.0732 98.2764 16.5068L100.649 19.5391C100.161 20.2227 99.3701 20.8525 98.2764 21.4287C97.1924 22.0049 95.8789 22.293 94.3359 22.293ZM110.771 22.293C109.014 22.293 107.515 21.9365 106.274 21.2236C105.044 20.5107 104.106 19.5732 103.462 18.4111C102.817 17.2393 102.495 15.9746 102.495 14.6172V14.0752C102.495 12.5615 102.778 11.1846 103.345 9.94434C103.911 8.69434 104.766 7.70312 105.908 6.9707C107.051 6.22852 108.486 5.85742 110.215 5.85742C111.748 5.85742 113.057 6.1748 114.141 6.80957C115.225 7.43457 116.055 8.33301 116.631 9.50488C117.217 10.667 117.51 12.0586 117.51 13.6797V15.8916H104.473V12.5078H112.354V12.083C112.363 11.624 112.285 11.248 112.119 10.9551C111.953 10.6621 111.704 10.4473 111.372 10.3105C111.05 10.1738 110.649 10.1055 110.171 10.1055C109.487 10.1055 108.975 10.2959 108.633 10.6768C108.291 11.0576 108.062 11.5508 107.944 12.1562C107.827 12.752 107.769 13.3916 107.769 14.0752V14.6172C107.769 15.3203 107.9 15.9307 108.164 16.4482C108.428 16.9561 108.809 17.3467 109.307 17.6201C109.814 17.8936 110.42 18.0303 111.123 18.0303C111.768 18.0303 112.412 17.918 113.057 17.6934C113.711 17.4688 114.263 17.0732 114.712 16.5068L117.085 19.5391C116.597 20.2227 115.806 20.8525 114.712 21.4287C113.628 22.0049 112.314 22.293 110.771 22.293ZM127.207 22.293C125.449 22.293 123.95 21.9365 122.71 21.2236C121.479 20.5107 120.542 19.5732 119.897 18.4111C119.253 17.2393 118.931 15.9746 118.931 14.6172V14.0752C118.931 12.5615 119.214 11.1846 119.78 9.94434C120.347 8.69434 121.201 7.70312 122.344 6.9707C123.486 6.22852 124.922 5.85742 126.65 5.85742C128.184 5.85742 129.492 6.1748 130.576 6.80957C131.66 7.43457 132.49 8.33301 133.066 9.50488C133.652 10.667 133.945 12.0586 133.945 13.6797V15.8916H120.908V12.5078H128.789V12.083C128.799 11.624 128.721 11.248 128.555 10.9551C128.389 10.6621 128.14 10.4473 127.808 10.3105C127.485 10.1738 127.085 10.1055 126.606 10.1055C125.923 10.1055 125.41 10.2959 125.068 10.6768C124.727 11.0576 124.497 11.5508 124.38 12.1562C124.263 12.752 124.204 13.3916 124.204 14.0752V14.6172C124.204 15.3203 124.336 15.9307 124.6 16.4482C124.863 16.9561 125.244 17.3467 125.742 17.6201C126.25 17.8936 126.855 18.0303 127.559 18.0303C128.203 18.0303 128.848 17.918 129.492 17.6934C130.146 17.4688 130.698 17.0732 131.147 16.5068L133.521 19.5391C133.032 20.2227 132.241 20.8525 131.147 21.4287C130.063 22.0049 128.75 22.293 127.207 22.293ZM136.128 10.7939V5.81348L149.062 11.0137V14.8076L144.785 13.4893L136.128 10.7939ZM144.785 12.8447L149.062 11.6289V15.3936L136.128 20.6084V15.6279L144.785 12.8447Z" fill="black"/>
</svg>
